<svg width="24" height="24" viewBox="0 0 24 24" fill="none" xmlns="http://www.w3.org/2000/svg">
<g clip-path="url(#clip0_212_11071)">
<path d="M22.4004 4.88438H23.5001V23.5H22.4004V4.88438Z" fill="#FFFEED"/>
<path d="M21.3079 3.78469H22.4004V4.88438H21.3079V3.78469Z" fill="#FFFEED"/>
<path d="M20.208 2.69218H21.3077V3.78468H20.208V2.69218Z" fill="#FFFEED"/>
<path d="M19.1157 1.5925H20.2082V2.69219H19.1157V1.5925Z" fill="#FFFEED"/>
<path d="M2.68503 0.5V4.88438H3.78472V5.97687H4.87722V15.8309H3.78472V16.9306H2.68503V18.0231H1.59253V19.1156H15.831V23.5H16.9235V18.0231H18.0232V16.9306H19.1157V15.8309H20.2082V5.97687H19.1157V4.88438H18.0232V1.5925H19.1157V0.5H2.68503ZM8.1619 1.5925H16.9235V3.78469H8.1619V1.5925ZM5.96972 1.5925H7.0694V3.78469H5.96972V1.5925ZM3.78472 3.78469V1.5925H4.87722V3.78469H3.78472ZM7.0694 16.9306H5.96972V18.0231H4.87722V16.9306H5.96972V15.8309H7.0694V16.9306ZM10.3541 16.9306H9.26159V18.0231H8.1619V16.9306H9.26159V15.8309H10.3541V16.9306ZM15.831 18.0231H12.5463V16.9306H15.831V18.0231ZM16.9235 14.7384H8.1619V8.16906H16.9235V14.7384ZM18.0232 7.06938H5.96972V5.97687H18.0232V7.06938Z" fill="#FFFEED"/>
<path d="M14.7312 11.4538H15.8309V12.5463H14.7312V11.4538Z" fill="#FFFEED"/>
<path d="M13.6387 9.26156H14.7312V10.3541H13.6387V9.26156Z" fill="#FFFEED"/>
<path d="M14.7312 23.5V21.3078H11.4465V23.5H12.5462V22.4075H13.6387V23.5H14.7312Z" fill="#FFFEED"/>
<path d="M10.354 12.5462H14.7312V13.6459H10.354V12.5462Z" fill="#FFFEED"/>
<path d="M10.354 9.26156H11.4465V10.3541H10.354V9.26156Z" fill="#FFFEED"/>
<path d="M9.26147 11.4538H10.354V12.5463H9.26147V11.4538Z" fill="#FFFEED"/>
<path d="M0.5 19.1156H1.5925V23.5H0.5V19.1156Z" fill="#FFFEED"/>
</g>
<defs>
<clipPath id="clip0_212_11071">
<rect width="24" height="24" fill="white"/>
</clipPath>
</defs>
</svg>
