<svg width="26" height="28" viewBox="0 0 26 28" fill="none" xmlns="http://www.w3.org/2000/svg">
<path d="M25.1378 19.7524H21.3057V18.4694H22.5803V17.1949H3.41961V18.4694H4.69839V19.7524H0.862061V27.4167H25.1378V19.7524ZM5.96878 18.4694H20.0227V19.7524H5.96878V18.4694ZM23.8633 26.1421H2.13664V21.027H23.8633V26.1421Z" fill="#4F066E"/>
<path d="M22.5803 1.85794H23.8633V17.1949H22.5803V1.85794Z" fill="#4F066E"/>
<path d="M14.916 22.3016H21.3057V23.5845H14.916V22.3016Z" fill="#4F066E"/>
<path d="M14.916 9.53058H16.1906V10.8052H14.916V9.53058Z" fill="#4F066E"/>
<path d="M14.916 6.97302H16.1906V8.24761H14.916V6.97302Z" fill="#4F066E"/>
<path d="M11.0839 10.8052H14.916V12.0798H11.0839V10.8052Z" fill="#4F066E"/>
<path d="M9.8009 9.53058H11.0839V10.8052H9.8009V9.53058Z" fill="#4F066E"/>
<path d="M9.8009 6.97302H11.0839V8.24761H9.8009V6.97302Z" fill="#4F066E"/>
<path d="M4.69836 15.9203H21.3099V3.1409H4.69836V15.9203ZM5.96876 4.41548H20.0227V14.6373H5.96876V4.41548Z" fill="#4F066E"/>
<path d="M4.69421 22.3016H7.25177V24.8591H4.69421V22.3016Z" fill="#4F066E"/>
<path d="M3.41956 0.583344H22.5802V1.85793H3.41956V0.583344Z" fill="#4F066E"/>
<path d="M2.1366 1.85794H3.41957V17.1949H2.1366V1.85794Z" fill="#4F066E"/>
</svg>
