<svg width="28" height="28" viewBox="0 0 28 28" fill="none" xmlns="http://www.w3.org/2000/svg">
<path d="M26.0007 8.00146H27.3307V10.6615H26.0007V8.00146Z" fill="#161616"/>
<path d="M23.3319 6.66309H26.0007V8.00184H23.3319V6.66309Z" fill="#161616"/>
<path d="M23.332 15.999H24.6707V12.0002H26.0007V10.6615H23.332V8.00146H22.002V12.0002H23.332V15.999Z" fill="#161616"/>
<path d="M22.002 17.329H20.6632V18.6678H22.002V19.9978H5.99821V18.6678H7.33696V17.329H5.99821V15.999H4.66821V22.6665H5.99821V23.9965H22.002V22.6665H23.332V15.999H22.002V17.329Z" fill="#161616"/>
<path d="M20.6632 12.0005H22.002V13.3305H20.6632V12.0005Z" fill="#161616"/>
<path d="M19.3331 13.3306H20.6631V14.6693H19.3331V13.3306Z" fill="#161616"/>
<path d="M18.0032 14.6689H19.3332V15.9989H18.0032V14.6689Z" fill="#161616"/>
<path d="M16.6644 17.3291H19.3332V18.6679H16.6644V17.3291Z" fill="#161616"/>
<path d="M16.6644 12.0005H18.0032V14.6692H16.6644V12.0005Z" fill="#161616"/>
<path d="M15.3345 9.33154H16.6645V12.0003H15.3345V9.33154Z" fill="#161616"/>
<path d="M15.3345 5.33301H16.6645V8.00176H15.3345V5.33301Z" fill="#161616"/>
<path d="M12.6656 8.00146H15.3344V9.33146H12.6656V8.00146Z" fill="#161616"/>
<path d="M12.6656 4.00293H15.3344V5.33293H12.6656V4.00293Z" fill="#161616"/>
<path d="M12.6656 15.999H15.3344V18.6678H12.6656V15.999Z" fill="#161616"/>
<path d="M11.3357 9.33154H12.6657V12.0003H11.3357V9.33154Z" fill="#161616"/>
<path d="M11.3357 5.33301H12.6657V8.00176H11.3357V5.33301Z" fill="#161616"/>
<path d="M9.99695 12.0005H11.3357V14.6692H9.99695V12.0005Z" fill="#161616"/>
<path d="M8.66699 17.3291H11.3357V18.6679H8.66699V17.3291Z" fill="#161616"/>
<path d="M8.66699 14.6689H9.99699V15.9989H8.66699V14.6689Z" fill="#161616"/>
<path d="M7.33691 13.3306H8.66691V14.6693H7.33691V13.3306Z" fill="#161616"/>
<path d="M5.99817 12.0005H7.33692V13.3305H5.99817V12.0005Z" fill="#161616"/>
<path d="M1.99939 10.6615V12.0002H3.33814V15.999H4.66814V12.0002H5.99814V8.00146H4.66814V10.6615H1.99939Z" fill="#161616"/>
<path d="M1.99939 6.66309H4.66814V8.00184H1.99939V6.66309Z" fill="#161616"/>
<path d="M0.669434 8.00146H1.99943V10.6615H0.669434V8.00146Z" fill="#161616"/>
</svg>
