<svg width="228" height="40" viewBox="0 0 228 40" fill="none" xmlns="http://www.w3.org/2000/svg">
<path d="M18.4 38C8.44002 38 0.400024 29.96 0.400024 20C0.400024 10.04 8.44002 2 18.4 2H21.6V38H18.4Z" fill="#FF0078"/>
<path d="M21.6 37.2C31.0993 37.2 38.8 29.4993 38.8 20C38.8 10.5008 31.0993 2.80005 21.6 2.80005C12.1007 2.80005 4.40002 10.5008 4.40002 20C4.40002 29.4993 12.1007 37.2 21.6 37.2Z" fill="#FEE500"/>
<path d="M21.6 3.6C30.64 3.6 38 10.96 38 20C38 29.04 30.64 36.4 21.6 36.4C12.56 36.4 5.20004 29.04 5.20004 20C5.20004 10.96 12.56 3.6 21.6 3.6ZM21.6 2C11.64 2 3.60004 10.04 3.60004 20C3.60004 29.96 11.64 38 21.6 38C31.56 38 39.6 29.96 39.6 20C39.6 10.04 31.56 2 21.6 2Z" fill="#FF0078"/>
<path d="M29.6 28.0667H28.1333V26.6V25.1333H26.6667V23.6667H25.2V25.1333H23.7333H22.2667V23.6667V22.2V20.7333V19.2667V17.8V16.3333H23.7333V14.8667H25.2V13.4V11.9333V10.4667H23.7333V9H22.2667H20.8H19.3333V10.4667H17.8667V11.9333V13.4V14.8667H19.3333V16.3333H20.8V17.8V19.2667V20.7333V22.2V23.6667V25.1333H19.3333H17.8667V23.6667H16.4V25.1333H14.9333V26.6V28.0667H13.4667H12V29.5333V31H13.4667H14.9333H16.4H17.8667H19.3333H20.8H22.2667H23.7333H25.2H26.6667H28.1333H29.6H31.0667V29.5333V28.0667H29.6ZM19.3333 11.9333H20.8V10.4667H22.2667V11.9333H20.8V13.4H19.3333V11.9333ZM16.4 26.6H17.8667H19.3333H20.8H22.2667V28.0667H20.8H19.3333H17.8667H16.4V26.6Z" fill="#FF0078"/>
<path d="M52 30H48V10H52V14H56V18H52V30ZM68 30H64V18H60V14H64V10H68V30ZM56 22V18H60V22H56Z" fill="#FFFEED"/>
<path d="M76 26H72V18H76V14H80V18H84V22H76V26ZM76 30V26H84V30H76Z" fill="#FFFEED"/>
<path d="M92 30H88V14H104V18H100V30H96V18H92V30ZM108 30H104V18H108V30Z" fill="#FFFEED"/>
<path d="M116 26H112V18H116V14H120V18H124V22H116V26ZM116 30V26H124V30H116Z" fill="#FFFEED"/>
<path d="M140 14V10H148V14H140ZM140 30H136V14H140V18H148V14H152V30H148V22H140V30Z" fill="#FFFEED"/>
<path d="M160 30H156V14H164V18H160V30Z" fill="#FFFEED"/>
<path d="M172 18V14H180V18H172ZM172 26H168V18H172V26ZM172 30V26H180V30H172Z" fill="#FFFEED"/>
<path d="M188 30V26H184V18H188V26H192V18H188V14H196V30H188Z" fill="#FFFEED"/>
<path d="M204 30V26H200V18H204V26H208V18H204V14H208V10H212V30H204Z" fill="#FFFEED"/>
<path d="M220 26H216V18H220V14H224V18H228V22H220V26ZM220 30V26H228V30H220Z" fill="#FFFEED"/>
</svg>
