<svg width="28" height="28" viewBox="0 0 28 28" fill="none" xmlns="http://www.w3.org/2000/svg">
<g clip-path="url(#clip0_151_1664)">
<path d="M14.6649 17.3337H15.9949V18.6637H18.6637V20.0025H19.9937V21.3325H18.6637V22.6625H15.9949V24.0012H14.6649V25.3312H15.9949V26.67H18.6637V28H22.6624V26.67H25.3312V25.3312H26.6612V22.6625H27.9999V18.6637H26.6612V16.0037H25.3312V14.665H22.6624V13.335H18.6637V14.665H15.9949V16.0037H14.6649V17.3337ZM21.3324 17.3337H22.6624V18.6637H21.3324V17.3337Z" fill="#4F066E"/>
<path d="M25.3312 5.32886H26.6612V6.66761H25.3312V5.32886Z" fill="#4F066E"/>
<path d="M21.3324 9.33618H22.6624V10.6662H21.3324V9.33618Z" fill="#4F066E"/>
<path d="M21.3324 5.32886H22.6624V6.66761H21.3324V5.32886Z" fill="#4F066E"/>
<path d="M21.3324 1.33008H22.6624V2.66883H21.3324V1.33008Z" fill="#4F066E"/>
<path d="M17.325 5.32886H18.6637V6.66761H17.325V5.32886Z" fill="#4F066E"/>
<path d="M13.3262 20.0024H14.6649V21.3324H13.3262V20.0024Z" fill="#4F066E"/>
<path d="M13.3262 5.32886H14.6649V11.9964H13.3262V5.32886Z" fill="#4F066E"/>
<path d="M11.9962 11.9963H13.3262V13.3351H11.9962V11.9963Z" fill="#4F066E"/>
<path d="M11.9962 2.6687H13.3262V5.3287H11.9962V2.6687Z" fill="#4F066E"/>
<path d="M10.6663 10.6663H11.9963V11.9963H10.6663V10.6663Z" fill="#4F066E"/>
<path d="M10.6663 1.33008H11.9963V2.66883H10.6663V1.33008Z" fill="#4F066E"/>
<path d="M9.32751 20.0024H10.6663V21.3324H9.32751V20.0024Z" fill="#4F066E"/>
<path d="M9.32751 11.9963H10.6663V13.3351H9.32751V11.9963Z" fill="#4F066E"/>
<path d="M9.32751 5.32886H10.6663V6.66761H9.32751V5.32886Z" fill="#4F066E"/>
<path d="M7.99744 10.6663H9.32744V11.9963H7.99744V10.6663Z" fill="#4F066E"/>
<path d="M6.65869 11.9963H7.99744V13.3351H6.65869V11.9963Z" fill="#4F066E"/>
<path d="M6.65869 5.32886H7.99744V6.66761H6.65869V5.32886Z" fill="#4F066E"/>
<path d="M5.32874 24.0012H6.65874V25.3312H5.32874V24.0012Z" fill="#4F066E"/>
<path d="M5.32874 20.0024H6.65874V21.3324H5.32874V20.0024Z" fill="#4F066E"/>
<path d="M5.32874 16.0037H6.65874V17.3337H5.32874V16.0037Z" fill="#4F066E"/>
<path d="M5.32874 10.6663H6.65874V11.9963H5.32874V10.6663Z" fill="#4F066E"/>
<path d="M3.99866 0H10.6662V1.33H3.99866V0Z" fill="#4F066E"/>
<path d="M3.99866 11.9963H5.32866V13.3351H3.99866V11.9963Z" fill="#4F066E"/>
<path d="M2.65991 10.6663H3.99866V11.9963H2.65991V10.6663Z" fill="#4F066E"/>
<path d="M2.65991 1.33008H3.99866V2.66883H2.65991V1.33008Z" fill="#4F066E"/>
<path d="M1.32996 20.0024H2.65996V21.3324H1.32996V20.0024Z" fill="#4F066E"/>
<path d="M1.32996 11.9963H2.65996V13.3351H1.32996V11.9963Z" fill="#4F066E"/>
<path d="M1.32996 2.6687H2.65996V5.3287H1.32996V2.6687Z" fill="#4F066E"/>
<path d="M0 5.32886H1.33V11.9964H0V5.32886Z" fill="#4F066E"/>
</g>
<defs>
<clipPath id="clip0_151_1664">
<rect width="28" height="28" fill="white"/>
</clipPath>
</defs>
</svg>
