<svg width="518" height="50" viewBox="0 0 518 50" fill="none" xmlns="http://www.w3.org/2000/svg">
<rect width="518" height="50" rx="4" fill="#D6D6D6"/>
<g filter="url(#filter0_ii_197_2262)">
<rect x="8" y="8" width="34" height="34" rx="4" fill="#D6D6D6"/>
<rect x="8.5" y="8.5" width="33" height="33" rx="3.5" stroke="#493758"/>
<mask id="mask0_197_2262" style="mask-type:alpha" maskUnits="userSpaceOnUse" x="13" y="13" width="24" height="24">
<rect x="13" y="13" width="24" height="24" fill="#D9D9D9"/>
</mask>
<g mask="url(#mask0_197_2262)">
<path d="M27 31L21 25L27 19L28.4 20.4L23.8 25L28.4 29.6L27 31Z" fill="#6E0E97"/>
</g>
</g>
<rect x="143" y="20" width="40" height="10" rx="5" fill="#DFDFDF"/>
<rect x="199" y="20" width="120" height="10" rx="5" fill="#3E3E3E"/>
<rect x="335" y="20" width="40" height="10" rx="5" fill="#DFDFDF"/>
<g filter="url(#filter1_ii_197_2262)">
<rect x="476" y="8" width="34" height="34" rx="4" fill="#D6D6D6"/>
<rect x="476.5" y="8.5" width="33" height="33" rx="3.5" stroke="#493758"/>
<mask id="mask1_197_2262" style="mask-type:alpha" maskUnits="userSpaceOnUse" x="481" y="13" width="24" height="24">
<rect x="481" y="13" width="24" height="24" fill="#D9D9D9"/>
</mask>
<g mask="url(#mask1_197_2262)">
<path d="M493.6 25L489 20.4L490.4 19L496.4 25L490.4 31L489 29.6L493.6 25Z" fill="#4F066E"/>
</g>
</g>
<defs>
<filter id="filter0_ii_197_2262" x="8" y="4" width="34" height="42" filterUnits="userSpaceOnUse" color-interpolation-filters="sRGB">
<feFlood flood-opacity="0" result="BackgroundImageFix"/>
<feBlend mode="normal" in="SourceGraphic" in2="BackgroundImageFix" result="shape"/>
<feColorMatrix in="SourceAlpha" type="matrix" values="0 0 0 0 0 0 0 0 0 0 0 0 0 0 0 0 0 0 127 0" result="hardAlpha"/>
<feOffset dy="4"/>
<feGaussianBlur stdDeviation="2"/>
<feComposite in2="hardAlpha" operator="arithmetic" k2="-1" k3="1"/>
<feColorMatrix type="matrix" values="0 0 0 0 1 0 0 0 0 1 0 0 0 0 1 0 0 0 0.25 0"/>
<feBlend mode="normal" in2="shape" result="effect1_innerShadow_197_2262"/>
<feColorMatrix in="SourceAlpha" type="matrix" values="0 0 0 0 0 0 0 0 0 0 0 0 0 0 0 0 0 0 127 0" result="hardAlpha"/>
<feOffset dy="-4"/>
<feGaussianBlur stdDeviation="2"/>
<feComposite in2="hardAlpha" operator="arithmetic" k2="-1" k3="1"/>
<feColorMatrix type="matrix" values="0 0 0 0 0 0 0 0 0 0 0 0 0 0 0 0 0 0 0.25 0"/>
<feBlend mode="normal" in2="effect1_innerShadow_197_2262" result="effect2_innerShadow_197_2262"/>
</filter>
<filter id="filter1_ii_197_2262" x="476" y="4" width="34" height="42" filterUnits="userSpaceOnUse" color-interpolation-filters="sRGB">
<feFlood flood-opacity="0" result="BackgroundImageFix"/>
<feBlend mode="normal" in="SourceGraphic" in2="BackgroundImageFix" result="shape"/>
<feColorMatrix in="SourceAlpha" type="matrix" values="0 0 0 0 0 0 0 0 0 0 0 0 0 0 0 0 0 0 127 0" result="hardAlpha"/>
<feOffset dy="4"/>
<feGaussianBlur stdDeviation="2"/>
<feComposite in2="hardAlpha" operator="arithmetic" k2="-1" k3="1"/>
<feColorMatrix type="matrix" values="0 0 0 0 1 0 0 0 0 1 0 0 0 0 1 0 0 0 0.25 0"/>
<feBlend mode="normal" in2="shape" result="effect1_innerShadow_197_2262"/>
<feColorMatrix in="SourceAlpha" type="matrix" values="0 0 0 0 0 0 0 0 0 0 0 0 0 0 0 0 0 0 127 0" result="hardAlpha"/>
<feOffset dy="-4"/>
<feGaussianBlur stdDeviation="2"/>
<feComposite in2="hardAlpha" operator="arithmetic" k2="-1" k3="1"/>
<feColorMatrix type="matrix" values="0 0 0 0 0 0 0 0 0 0 0 0 0 0 0 0 0 0 0.25 0"/>
<feBlend mode="normal" in2="effect1_innerShadow_197_2262" result="effect2_innerShadow_197_2262"/>
</filter>
</defs>
</svg>
