<svg width="24" height="24" viewBox="0 0 24 24" fill="none" xmlns="http://www.w3.org/2000/svg">
<path d="M20.2117 13.646H21.3114V19.1229H20.2117V13.646Z" fill="#FFFEED"/>
<path d="M19.1191 19.1228H20.2116V21.3078H19.1191V19.1228Z" fill="#FFFEED"/>
<path d="M19.1191 11.4537H20.2116V13.6459H19.1191V11.4537Z" fill="#FFFEED"/>
<path d="M18.0266 10.3612H19.1191V11.4537H18.0266V10.3612Z" fill="#FFFEED"/>
<path d="M16.927 21.3079H19.1192V22.4075H16.927V21.3079Z" fill="#FFFEED"/>
<path d="M16.927 9.2616H18.0267V10.3613H16.927V9.2616Z" fill="#FFFEED"/>
<path d="M16.927 3.78469H18.0267V0.5H15.8345V1.5925H16.927V3.78469Z" fill="#FFFEED"/>
<path d="M15.8345 8.16907H16.927V9.26157H15.8345V8.16907Z" fill="#FFFEED"/>
<path d="M15.8345 3.78467H16.927V4.88436H15.8345V3.78467Z" fill="#FFFEED"/>
<path d="M7.07275 22.4075H16.9268V23.5H7.07275V22.4075Z" fill="#FFFEED"/>
<path d="M9.25775 10.3612V11.4537H8.16525V12.5462H7.07275V18.0231H8.16525V19.1228H9.25775V20.2153H14.7346V19.1228H15.8343V18.0231H16.9268V12.5462H15.8343V11.4537H14.7346V10.3612H9.25775ZM14.7346 16.9306H13.6421V18.0231H12.5496V19.1228H11.4499V18.0231H10.3574V16.9306H13.6421V15.8309H10.3574V14.7384H9.25775V13.6459H10.3574V12.5462H11.4499V11.4537H12.5496V12.5462H13.6421V13.6459H10.3574V14.7384H13.6421V15.8309H14.7346V16.9306Z" fill="#FFFEED"/>
<path d="M14.7346 7.06934H15.8343V8.16902H14.7346V7.06934Z" fill="#FFFEED"/>
<path d="M14.7346 4.8844H15.8343V5.9769H14.7346V4.8844Z" fill="#FFFEED"/>
<path d="M14.7346 1.59253H15.8343V2.69222H14.7346V1.59253Z" fill="#FFFEED"/>
<path d="M13.6423 2.69214H14.7348V3.78464H13.6423V2.69214Z" fill="#FFFEED"/>
<path d="M12.5498 1.59253H13.6423V2.69222H12.5498V1.59253Z" fill="#FFFEED"/>
<path d="M11.45 0.5H12.5496V1.5925H11.45V0.5Z" fill="#FFFEED"/>
<path d="M9.25781 5.97693H14.7347V7.06943H9.25781V5.97693Z" fill="#FFFEED"/>
<path d="M10.3574 1.59253H11.4499V2.69222H10.3574V1.59253Z" fill="#FFFEED"/>
<path d="M9.25781 2.69214H10.3575V3.78464H9.25781V2.69214Z" fill="#FFFEED"/>
<path d="M8.16528 7.06934H9.25778V8.16902H8.16528V7.06934Z" fill="#FFFEED"/>
<path d="M8.16528 4.8844H9.25778V5.9769H8.16528V4.8844Z" fill="#FFFEED"/>
<path d="M8.16528 1.59253H9.25778V2.69222H8.16528V1.59253Z" fill="#FFFEED"/>
<path d="M7.07275 8.16907H8.16525V9.26157H7.07275V8.16907Z" fill="#FFFEED"/>
<path d="M7.07275 3.78467H8.16525V4.88436H7.07275V3.78467Z" fill="#FFFEED"/>
<path d="M4.88062 21.3079H7.0728V22.4075H4.88062V21.3079Z" fill="#FFFEED"/>
<path d="M5.97314 9.2616H7.07283V10.3613H5.97314V9.2616Z" fill="#FFFEED"/>
<path d="M8.16533 1.5925V0.5H5.97314V3.78469H7.07283V1.5925H8.16533Z" fill="#FFFEED"/>
<path d="M4.88062 10.3612H5.97312V11.4537H4.88062V10.3612Z" fill="#FFFEED"/>
<path d="M3.78809 19.1228H4.88059V21.3078H3.78809V19.1228Z" fill="#FFFEED"/>
<path d="M3.78809 11.4537H4.88059V13.6459H3.78809V11.4537Z" fill="#FFFEED"/>
<path d="M2.68848 13.646H3.78816V19.1229H2.68848V13.646Z" fill="#FFFEED"/>
</svg>
