<svg width="24" height="24" viewBox="0 0 24 24" fill="none" xmlns="http://www.w3.org/2000/svg">
<g clip-path="url(#clip0_212_11083)">
<path d="M22.4003 9.26157H21.3078V11.4538H20.2153V12.5463H21.3078V14.7384H22.4003V12.5463H23.5V11.4538H22.4003V9.26157Z" fill="#FFFEED"/>
<path d="M20.2153 14.7384H21.3078V16.9306H20.2153V14.7384Z" fill="#FFFEED"/>
<path d="M20.2153 7.06937H21.3078V9.26155H20.2153V7.06937Z" fill="#FFFEED"/>
<path d="M19.1157 16.9306H20.2154V19.1156H19.1157V16.9306Z" fill="#FFFEED"/>
<path d="M19.1157 4.8772H20.2154V7.06938H19.1157V4.8772Z" fill="#FFFEED"/>
<path d="M18.023 18.0231H16.9233V20.2153H19.1155V19.1156H18.023V18.0231Z" fill="#FFFEED"/>
<path d="M16.9233 3.7847H19.1155V4.8772H16.9233V3.7847Z" fill="#FFFEED"/>
<path d="M14.7385 20.2153H16.9235V21.3078H14.7385V20.2153Z" fill="#FFFEED"/>
<path d="M14.7385 16.9306H16.9235V18.0231H14.7385V16.9306Z" fill="#FFFEED"/>
<path d="M14.7385 14.7384H15.831V15.8309H14.7385V14.7384Z" fill="#FFFEED"/>
<path d="M14.7385 2.6922H16.9235V3.7847H14.7385V2.6922Z" fill="#FFFEED"/>
<path d="M13.6387 10.3541H14.7384V12.5463H13.6387V10.3541Z" fill="#FFFEED"/>
<path d="M12.5462 20.2153H11.4465V21.3078H9.26147V22.4075H11.4465V23.5H12.5462V22.4075H14.7383V21.3078H12.5462V20.2153Z" fill="#FFFEED"/>
<path d="M9.26147 15.8309H14.7383V16.9306H9.26147V15.8309Z" fill="#FFFEED"/>
<path d="M10.354 13.6388H13.6387V14.7385H10.354V13.6388Z" fill="#FFFEED"/>
<path d="M11.4465 3.78469H12.5462V2.69219H14.7383V1.5925H12.5462V0.5H11.4465V1.5925H9.26147V2.69219H11.4465V3.78469Z" fill="#FFFEED"/>
<path d="M9.26147 10.3541H10.354V12.5463H9.26147V10.3541Z" fill="#FFFEED"/>
<path d="M7.06934 20.2153H9.26152V21.3078H7.06934V20.2153Z" fill="#FFFEED"/>
<path d="M7.06934 16.9306H9.26152V18.0231H7.06934V16.9306Z" fill="#FFFEED"/>
<path d="M8.16187 14.7384H9.26155V15.8309H8.16187V14.7384Z" fill="#FFFEED"/>
<path d="M7.06934 2.6922H9.26152V3.7847H7.06934V2.6922Z" fill="#FFFEED"/>
<path d="M8.16184 9.26157H9.26152V8.16907H14.7384V9.26157H15.8309V14.7384H16.9234V7.06938H15.8309V5.97688H14.7384V4.8772H9.26152V5.97688H8.16184V7.06938H7.06934V14.7384H8.16184V9.26157Z" fill="#FFFEED"/>
<path d="M5.97688 18.0231V19.1156H4.8772V20.2153H7.06938V18.0231H5.97688Z" fill="#FFFEED"/>
<path d="M4.8772 3.7847H7.06938V4.8772H4.8772V3.7847Z" fill="#FFFEED"/>
<path d="M3.78467 16.9306H4.87717V19.1156H3.78467V16.9306Z" fill="#FFFEED"/>
<path d="M3.78467 4.8772H4.87717V7.06938H3.78467V4.8772Z" fill="#FFFEED"/>
<path d="M2.68506 14.7384H3.78475V16.9306H2.68506V14.7384Z" fill="#FFFEED"/>
<path d="M2.68506 7.06937H3.78475V9.26155H2.68506V7.06937Z" fill="#FFFEED"/>
<path d="M3.78469 12.5463V11.4538H2.685V9.26157H1.5925V11.4538H0.5V12.5463H1.5925V14.7384H2.685V12.5463H3.78469Z" fill="#FFFEED"/>
</g>
<defs>
<clipPath id="clip0_212_11083">
<rect width="24" height="24" fill="white"/>
</clipPath>
</defs>
</svg>
